<svg width="48" height="48" viewBox="0 0 48 48" fill="none" xmlns="http://www.w3.org/2000/svg">
<g clip-path="url(#clip0_76_210)">
<path d="M46.7754 21.892L26.1069 1.22423C24.9174 0.0339805 22.9869 0.0339805 21.7955 1.22423L17.504 5.51648L22.9483 10.9607C24.2139 10.5336 25.6644 10.8201 26.6728 11.8285C27.6864 12.8432 27.9707 14.3061 27.533 15.5759L32.78 20.8232C34.0494 20.3856 35.5145 20.6684 36.5278 21.6839C37.9453 23.1002 37.9453 25.3964 36.5278 26.8135C36.1909 27.1505 35.791 27.4178 35.3508 27.6003C34.9106 27.7827 34.4387 27.8765 33.9622 27.8765C33.4857 27.8765 33.0139 27.7827 32.5737 27.6003C32.1335 27.4178 31.7335 27.1505 31.3967 26.8135C30.8907 26.307 30.5458 25.6622 30.4053 24.9602C30.2649 24.2582 30.3351 23.5303 30.6073 22.8681L25.7143 17.9751L25.7135 30.853C26.0686 31.0278 26.3927 31.2593 26.6732 31.5385C28.0899 32.9549 28.0899 35.2502 26.6732 36.6696C25.256 38.086 22.9592 38.086 21.5435 36.6696C20.1268 35.2506 20.1268 32.9552 21.5435 31.5385C21.8833 31.1989 22.2869 30.93 22.7312 30.7472V17.7501C22.2864 17.5681 21.8826 17.299 21.5435 16.9585C20.4703 15.886 20.2119 14.311 20.7624 12.9925L15.395 7.62511L1.22303 21.7964C0.651272 22.3683 0.330078 23.1439 0.330078 23.9526C0.330078 24.7613 0.651272 25.5369 1.22303 26.1089L21.8919 46.7766C23.0822 47.9669 25.0119 47.9669 26.204 46.7766L46.7758 26.2049C47.3474 25.6328 47.6685 24.8571 47.6684 24.0483C47.6683 23.2396 47.3471 22.464 46.7754 21.892Z" fill="#F34F29"/>
</g>
<defs>
<clipPath id="clip0_76_210">
<rect width="48" height="48" fill="white"/>
</clipPath>
</defs>
</svg>
