<svg width="71" height="48" viewBox="0 0 71 48" fill="none" xmlns="http://www.w3.org/2000/svg">
<g clip-path="url(#clip0_76_214)">
<path d="M20.9481 31.6741L23.0881 38.6179C23.569 40.1945 23.7695 41.295 23.6892 41.9223C24.8596 38.7876 25.6774 35.3715 26.1427 31.6741H28.716C27.6094 37.6936 26.1502 42.0677 24.3386 44.7964C22.9272 46.8992 21.381 47.9505 19.6973 47.9505C19.2484 47.9505 18.695 47.8149 18.0382 47.5456V46.0946C18.3591 46.1417 18.7355 46.1668 19.1685 46.1668C19.9538 46.1666 20.5872 45.9492 21.0687 45.5146C21.6454 44.9852 21.9341 44.3903 21.9341 43.7308C21.9341 43.2805 21.7089 42.3564 21.2607 40.9585L18.2789 31.6741H20.9481ZM4.56935 27.4062L8.48912 39.3658H8.51333L12.4572 27.4062H15.6794C16.3849 33.3373 16.8017 38.7641 16.9296 43.6831H14.213C14.1172 39.085 13.8528 34.7608 13.4196 30.7107H13.396L9.25919 43.6831H7.19037L3.0786 30.7107H3.0544C2.74952 34.6004 2.55716 38.9245 2.47729 43.6831H0C0.160092 37.8956 0.560734 32.4705 1.20193 27.4062H4.56935Z" fill="#00758F"/>
<path d="M48.4812 27.1647C52.6976 27.1647 54.8059 29.8585 54.8059 35.2434C54.8059 38.1696 54.1719 40.38 52.905 41.8732C52.6767 42.1461 52.4243 42.3818 52.1586 42.6002L55.1425 44.0755L55.1396 44.0754L54.0801 45.9049L50.1943 43.6376C49.5501 43.8283 48.8418 43.9237 48.0693 43.9237C45.9989 43.9237 44.4525 43.3203 43.43 42.1151C42.3077 40.7818 41.7469 38.6829 41.7469 35.8219C41.7469 32.9122 42.3798 30.7102 43.6471 29.2151C44.8013 27.8474 46.4129 27.1647 48.4812 27.1647ZM35.5693 27.1882C37.0763 27.1882 38.4466 27.5915 39.6808 28.3951L39.0539 29.792C37.9978 29.3431 36.9565 29.1177 35.9297 29.1177C35.0965 29.1177 34.4545 29.3182 34.0069 29.7218C33.5569 30.1217 33.2785 30.6364 33.2785 31.2638C33.2785 32.2279 33.9654 33.064 35.2336 33.7704C35.6491 33.9975 36.0631 34.2272 36.4757 34.4596L36.5703 34.5128L36.6178 34.5395L36.7125 34.5927L36.7598 34.6194L36.8545 34.6728C37.8145 35.214 38.7178 35.7306 38.7178 35.7306C39.9859 36.6307 40.618 37.5905 40.618 39.1712C40.618 40.5516 40.1121 41.6848 39.1037 42.5714C38.0946 43.4542 36.7389 43.8967 35.0412 43.8967C33.4533 43.8967 31.9144 43.3873 30.4238 42.377L31.1211 40.9788C32.4039 41.6218 33.5647 41.9429 34.6071 41.9429C35.5847 41.9429 36.35 41.7246 36.9036 41.2936C37.456 40.8594 37.7871 40.2538 37.7871 39.486C37.7871 38.5195 37.1148 37.6933 35.8815 37.0003C35.4955 36.787 35.1106 36.5717 34.7269 36.3543L34.6324 36.3008C34.4589 36.2027 34.284 36.1034 34.1128 36.0062L34.02 35.9534C33.1872 35.4797 32.4672 35.0658 32.4672 35.0658C31.2343 34.164 30.6161 33.1965 30.6161 31.6021C30.6161 30.2836 31.0771 29.2178 31.9978 28.407C32.9207 27.5945 34.1113 27.1882 35.5693 27.1882ZM59.7612 27.4061V41.6806H64.8827V43.6829H57.1637V27.4062L59.7612 27.4061ZM67.7286 41.6868V42.0252H67.1656V43.6811H66.7351V42.0252H66.1501V41.6868H67.7286ZM68.7684 41.6868L69.3091 43.0462L69.8057 41.6868H70.4159V43.6811H70.0102V42.1634L69.4449 43.6811H69.1524L68.5862 42.1634H68.5644V43.6811H68.1806V41.6868H68.7684ZM48.216 29.1664C45.7313 29.1664 44.4882 31.217 44.4882 35.3156C44.4882 37.6633 44.8176 39.3658 45.4752 40.4269C46.0842 41.4089 47.038 41.8989 48.3368 41.8989C50.8215 41.8989 52.0644 39.8323 52.0644 35.701C52.0644 33.3861 51.735 31.6983 51.0783 30.6366C50.4686 29.6568 49.5152 29.1664 48.2162 29.1664" fill="#F29111"/>
<path d="M41.7039 1.00856C42.5281 -1.01679 45.4102 0.517007 46.5286 1.22449C46.8027 1.4015 47.1172 1.77546 47.4314 1.91368C47.9217 1.93294 48.4116 1.97131 48.9028 1.9918C49.824 2.20828 50.6869 2.38516 51.4128 2.79859C54.7863 4.78529 56.9823 6.80982 59.0034 10.1539C59.4353 10.8622 59.6511 11.6287 60.0038 12.3951C60.4935 13.5377 61.0436 14.737 61.6119 15.8173C61.8664 16.3295 62.0632 16.899 62.4165 17.3316C62.5545 17.5294 62.9463 17.5877 63.1805 17.7058C63.828 18.041 64.6125 18.2954 65.2215 18.6888C66.3588 19.3979 67.4584 20.2429 68.458 21.108C68.8306 21.442 69.0845 21.9147 69.4395 22.2679V22.4461C69.1244 22.5428 68.8104 22.6418 68.4961 22.7212C67.8097 22.8975 67.2016 22.8576 66.5357 23.0341C66.1242 23.1535 65.6132 23.311 65.1817 23.351L65.2215 23.3911C65.4754 24.1166 66.8491 24.7067 67.4774 25.1406C68.2405 25.6913 68.9475 26.3592 69.5167 27.1262C69.7132 27.3219 69.9097 27.5 70.1053 27.6952C70.242 27.893 70.2805 28.1488 70.4189 28.3251V28.3848C70.2657 28.3307 70.1555 28.2276 70.0511 28.1198L69.9888 28.0547C69.9265 27.9901 69.8637 27.9265 69.792 27.8741C69.359 27.5784 68.9291 27.2247 68.4961 26.9497C67.7518 26.4774 66.8885 26.2033 66.1242 25.7292C65.6921 25.454 65.2801 25.1406 64.8682 24.8256C64.4948 24.5496 64.0836 24.0195 63.8489 23.6262C63.7107 23.4089 63.6917 23.1535 63.5338 22.9963C63.562 22.7337 63.8026 22.6557 64.0453 22.5916L64.1012 22.5769C64.1849 22.5552 64.2669 22.5335 64.3384 22.5047C65.3581 22.0718 66.5738 21.9147 68.1436 21.954C68.0845 21.5598 67.1036 21.0687 66.7904 20.8327C66.1619 20.3797 65.4963 19.9069 64.8296 19.4946C64.4762 19.2787 63.8674 19.1211 63.4759 18.9446C62.9463 18.7281 61.7691 18.5118 61.4756 18.0994C60.9771 17.4495 60.6189 16.6742 60.2712 15.891L60.1766 15.6773L60.0817 15.4637C59.6707 14.5206 59.1602 13.5374 58.7483 12.5717C58.5329 12.1007 58.434 11.6873 58.1981 11.2354C56.7668 8.463 54.6483 6.14181 52.0799 4.5094C51.2358 3.97823 50.2946 3.48668 49.2557 3.15261C48.6669 2.97477 47.9602 3.07311 47.3329 2.93667H46.9201C46.5677 2.83737 46.2735 2.46383 45.9986 2.26687C45.3914 1.85454 44.7832 1.57768 44.057 1.28349C43.8025 1.16549 43.0759 0.890691 42.8223 1.10704C42.6653 1.14651 42.5856 1.20579 42.547 1.3634C42.3907 1.59859 42.5281 1.95288 42.6254 2.16977C42.92 2.79831 43.3315 3.17186 43.705 3.70302C44.0373 4.17408 44.4501 4.70525 44.6857 5.21743C45.194 6.3184 45.4307 7.53821 45.9018 8.63905C46.0764 9.05303 46.3527 9.52409 46.607 9.8975C46.8226 10.1939 47.2144 10.4082 47.3329 10.7834C47.5692 11.1767 46.9792 12.4746 46.8426 12.8868C46.3317 14.4997 46.4307 16.7417 47.0191 18.1397L47.0505 18.2135L47.0818 18.2881C47.2966 18.8002 47.5266 19.3516 48.0978 19.4947C48.1371 19.4557 48.0978 19.4762 48.1758 19.4557C48.314 18.3736 48.3529 17.3314 48.7259 16.4848C48.9414 15.9554 49.3718 15.5812 49.6668 15.149C49.8635 15.2668 49.8635 15.6217 49.9807 15.8567C50.2359 16.4659 50.51 17.1339 50.8247 17.745C51.4706 19.0035 52.1973 20.2236 53.0207 21.3244C53.2965 21.7176 53.6878 22.1504 54.0407 22.5046C54.1979 22.6417 54.374 22.7209 54.4921 22.8974H54.5306V22.9568C53.9422 22.7399 53.5692 22.1312 53.1 21.7758C52.2164 21.1078 51.1584 20.1046 50.5494 19.142C50.2946 18.5893 50.0193 18.0597 49.7448 17.5098V17.4701C49.6275 17.6271 49.6668 17.7831 49.6081 18.0208C49.3533 19.0035 49.5495 20.1245 48.6669 20.478C47.6665 20.892 46.9202 19.81 46.607 19.3183C45.6063 17.6863 45.3322 14.9331 46.0379 12.7107C46.1947 12.2187 46.216 11.6287 46.4897 11.2359C46.4306 10.8807 46.1569 10.7836 45.9986 10.5661C45.7241 10.1942 45.489 9.76093 45.274 9.34791C44.8612 8.54112 44.5674 7.57713 44.2539 6.71189C44.1161 6.35856 44.0767 6.00386 43.9393 5.66937C43.7049 5.15884 43.2729 4.64666 42.9396 4.19499C42.4884 3.54582 41.1741 2.28764 41.7039 1.00856ZM48.1367 4.86163C48.1891 4.91416 48.2524 4.9601 48.3178 5.00535L48.3968 5.05954C48.502 5.13243 48.6039 5.20918 48.6664 5.31371C48.7654 5.45207 48.7838 5.58864 48.9024 5.72728C48.9024 6.19999 48.7654 6.51426 48.4888 6.71011C48.4888 6.71011 48.47 6.73074 48.4506 6.74999C48.2938 6.4349 48.1564 6.12145 47.9985 5.80663C47.804 5.53184 47.5291 5.31384 47.3706 4.99985H47.3325V4.96038C47.5692 4.90192 47.804 4.86163 48.1367 4.86163Z" fill="#00758F"/>
</g>
<defs>
<clipPath id="clip0_76_214">
<rect width="70.42" height="48" fill="white"/>
</clipPath>
</defs>
</svg>
