<svg width="16" height="16" viewBox="0 0 16 16" fill="none" xmlns="http://www.w3.org/2000/svg">
<g clip-path="url(#clip0_238_8951)">
<mask id="mask0_238_8951" style="mask-type:luminance" maskUnits="userSpaceOnUse" x="0" y="0" width="16" height="16">
<path d="M8 16C12.4183 16 16 12.4183 16 8C16 3.58172 12.4183 0 8 0C3.58172 0 0 3.58172 0 8C0 12.4183 3.58172 16 8 16Z" fill="white"/>
</mask>
<g mask="url(#mask0_238_8951)">
<path d="M8 16C12.4183 16 16 12.4183 16 8C16 3.58172 12.4183 0 8 0C3.58172 0 0 3.58172 0 8C0 12.4183 3.58172 16 8 16Z" fill="black"/>
<path d="M13.2904 14.0016L6.14672 4.7998H4.80078V11.1971H5.87753V6.1673L12.4452 14.6527C12.7411 14.4547 13.0235 14.2372 13.2904 14.0016Z" fill="url(#paint0_linear_238_8951)"/>
<path d="M10.2227 4.7998H11.2893V11.1998H10.2227V4.7998Z" fill="url(#paint1_linear_238_8951)"/>
</g>
</g>
<defs>
<linearGradient id="paint0_linear_238_8951" x1="477.104" y1="560.354" x2="760.607" y2="911.744" gradientUnits="userSpaceOnUse">
<stop stop-color="white"/>
<stop offset="1" stop-color="white" stop-opacity="0"/>
</linearGradient>
<linearGradient id="paint1_linear_238_8951" x1="63.557" y1="4.7998" x2="61.7523" y2="474.796" gradientUnits="userSpaceOnUse">
<stop stop-color="white"/>
<stop offset="1" stop-color="white" stop-opacity="0"/>
</linearGradient>
<clipPath id="clip0_238_8951">
<rect width="16" height="16" fill="white"/>
</clipPath>
</defs>
</svg>
