<svg width="48" height="48" viewBox="0 0 48 48" fill="none" xmlns="http://www.w3.org/2000/svg">
<g clip-path="url(#clip0_76_206)">
<path d="M43.3125 0H4.6875C2.09867 0 0 2.09867 0 4.6875V43.3125C0 45.9013 2.09867 48 4.6875 48H43.3125C45.9013 48 48 45.9013 48 43.3125V4.6875C48 2.09867 45.9013 0 43.3125 0Z" fill="url(#paint0_linear_76_206)"/>
<path d="M39.5091 6.24023H29.3691C28.1265 6.24023 27.1191 7.24759 27.1191 8.49023V24.9902C27.1191 26.2329 28.1265 27.2402 29.3691 27.2402H39.5091C40.7518 27.2402 41.7591 26.2329 41.7591 24.9902V8.49023C41.7591 7.24759 40.7518 6.24023 39.5091 6.24023Z" fill="white"/>
<path d="M18.6302 6.24023H8.49023C7.24759 6.24023 6.24023 7.24759 6.24023 8.49023V36.9902C6.24023 38.2329 7.24759 39.2402 8.49023 39.2402H18.6302C19.8729 39.2402 20.8802 38.2329 20.8802 36.9902V8.49023C20.8802 7.24759 19.8729 6.24023 18.6302 6.24023Z" fill="white"/>
</g>
<defs>
<linearGradient id="paint0_linear_76_206" x1="2400" y1="0" x2="2400" y2="4800" gradientUnits="userSpaceOnUse">
<stop stop-color="#0091E6"/>
<stop offset="1" stop-color="#0079BF"/>
</linearGradient>
<clipPath id="clip0_76_206">
<rect width="48" height="48" fill="white"/>
</clipPath>
</defs>
</svg>
