<svg width="48" height="48" viewBox="0 0 48 48" fill="none" xmlns="http://www.w3.org/2000/svg">
<g clip-path="url(#clip0_76_195)">
<mask id="mask0_76_195" style="mask-type:alpha" maskUnits="userSpaceOnUse" x="0" y="0" width="48" height="48">
<path fill-rule="evenodd" clip-rule="evenodd" d="M34.0378 47.6723C34.4197 47.8212 34.8282 47.8899 35.2379 47.8741C35.6476 47.8584 36.0496 47.7586 36.419 47.5808L46.3014 42.8254C46.8103 42.5804 47.2397 42.1967 47.5403 41.7185C47.8408 41.2403 48.0002 40.6869 48.0001 40.1221V7.87843C48.0003 7.31354 47.8409 6.76009 47.5404 6.28177C47.2398 5.80345 46.8104 5.4197 46.3014 5.17468L36.419 0.420053C35.8606 0.151368 35.2325 0.0629042 34.6216 0.166905C34.0107 0.270906 33.4472 0.562228 33.0091 1.00055L14.0904 18.2603L5.85013 12.0049C5.47836 11.7228 5.01959 11.5797 4.55336 11.6004C4.08713 11.6211 3.64284 11.8043 3.29751 12.1182L0.654509 14.5223C0.44854 14.7096 0.283939 14.9379 0.171237 15.1925C0.0585349 15.4471 0.000212358 15.7224 5.78834e-07 16.0008C-0.0002112 16.2792 0.0576924 16.5546 0.170007 16.8094C0.282322 17.0641 0.446575 17.2927 0.652259 17.4803L7.79863 24.0001L0.652634 30.5202C0.447062 30.7079 0.282908 30.9364 0.170662 31.1911C0.0584174 31.4458 0.000551349 31.7211 0.000763107 31.9995C0.000974864 32.2778 0.0592597 32.5531 0.171892 32.8076C0.284525 33.0622 0.449027 33.2904 0.654884 33.4778L3.29788 35.8819C3.64317 36.1959 4.08744 36.3791 4.55367 36.3999C5.0199 36.4206 5.47869 36.2776 5.85051 35.9956L14.0908 29.7406L33.0095 46.9999C33.3023 47.2926 33.6522 47.5216 34.0378 47.6723ZM36.0073 13.1037L21.6526 24.0001L36.0076 34.8968L36.0073 13.1037Z" fill="white"/>
</mask>
<g mask="url(#mask0_76_195)">
<path d="M46.3015 5.18255L36.4112 0.420053C35.8527 0.151023 35.2242 0.0623719 34.613 0.16638C34.0018 0.270389 33.438 0.561908 32.9999 1.00055L0.623121 30.5202C0.417395 30.7078 0.253101 30.9362 0.140757 31.191C0.028412 31.4457 -0.0295081 31.7211 -0.0292963 31.9995C-0.0290845 32.2779 0.0292546 32.5532 0.141986 32.8078C0.254718 33.0623 0.419359 33.2905 0.625371 33.4778L3.26987 35.8819C3.61526 36.1963 4.05983 36.3798 4.52639 36.4005C4.99295 36.4213 5.45206 36.278 5.824 35.9956L44.8131 6.41743C46.1211 5.42518 47.9999 6.35818 47.9999 7.99993V7.88518C47.9999 7.32045 47.8405 6.76719 47.5401 6.28902C47.2396 5.81085 46.8103 5.42757 46.3015 5.18255Z" fill="#0065A9"/>
<g filter="url(#filter0_d_76_195)">
<path d="M46.3015 42.818L36.4112 47.5797C35.8527 47.8488 35.2243 47.9376 34.6131 47.8337C34.0019 47.7299 33.4381 47.4385 32.9999 47L0.623121 17.48C0.417395 17.2924 0.253101 17.0639 0.140757 16.8092C0.028412 16.5545 -0.0295081 16.2791 -0.0292963 16.0007C-0.0290845 15.7223 0.0292546 15.447 0.141986 15.1924C0.254718 14.9378 0.419359 14.7096 0.625371 14.5223L3.26987 12.1182C3.61526 11.8039 4.05983 11.6204 4.52639 11.5996C4.99295 11.5789 5.45206 11.7222 5.824 12.0046L44.8131 41.5823C46.1211 42.575 47.9999 41.642 47.9999 40.0002V40.115C47.9999 40.6797 47.8405 41.233 47.5401 41.7111C47.2396 42.1893 46.8103 42.5729 46.3015 42.818Z" fill="#007ACC"/>
</g>
<g filter="url(#filter1_d_76_195)">
<path d="M36.4117 47.5808C35.853 47.8493 35.2246 47.9376 34.6134 47.8336C34.0022 47.7295 33.4385 47.4382 33 46.9999C34.107 48.1069 36 47.3228 36 45.7571V2.24252C36 0.676895 34.107 -0.10723 33 1.00015C33.4385 0.561841 34.0022 0.270534 34.6134 0.166478C35.2246 0.0624221 35.853 0.150755 36.4117 0.41927L46.3001 5.17502C46.8093 5.41988 47.239 5.80356 47.5398 6.28189C47.8405 6.76022 48 7.31376 48 7.87877V40.122C48 40.687 47.8405 41.2406 47.5398 41.7189C47.239 42.1972 46.8093 42.5809 46.3001 42.8258L36.4117 47.5808Z" fill="#1F9CF0"/>
</g>
<path opacity="0.25" fill-rule="evenodd" clip-rule="evenodd" d="M34.0087 47.6723C34.3906 47.8211 34.799 47.8898 35.2086 47.8741C35.6182 47.8583 36.0202 47.7585 36.3895 47.5808L46.2719 42.8254C46.7809 42.5804 47.2104 42.1967 47.5109 41.7183C47.8114 41.24 47.9708 40.6866 47.9707 40.1217V7.87843C47.9708 7.31354 47.8114 6.76009 47.5109 6.28177C47.2104 5.80345 46.7809 5.4197 46.2719 5.17468L36.3895 0.420053C35.8311 0.151368 35.203 0.0629042 34.5921 0.166905C33.9812 0.270906 33.4177 0.562228 32.9797 1.00055L14.0609 18.2603L5.82066 12.0053C5.44888 11.7232 4.99011 11.5801 4.52388 11.6008C4.05766 11.6215 3.61336 11.8046 3.26803 12.1186L0.625031 14.5227C0.419113 14.71 0.254558 14.9383 0.141889 15.1929C0.0292199 15.4475 -0.0290845 15.7228 -0.0292963 16.0012C-0.0295081 16.2796 0.0283775 16.555 0.140659 16.8097C0.252941 17.0645 0.417148 17.293 0.622781 17.4807L7.76916 24.0001L0.623156 30.5198C0.417472 30.7075 0.253218 30.936 0.140904 31.1907C0.0285887 31.4455 -0.0293149 31.7209 -0.0291031 31.9993C-0.0288913 32.2777 0.0294312 32.553 0.142133 32.8076C0.254836 33.0622 0.419436 33.2905 0.625406 33.4778L3.26841 35.8819C3.61369 36.1959 4.05796 36.3791 4.52419 36.3999C4.99042 36.4206 5.44921 36.2776 5.82103 35.9956L14.0617 29.7402L32.9804 46.9999C33.2731 47.2926 33.6232 47.5215 34.0087 47.6723ZM35.9782 13.1033L21.6232 24.0001L35.9782 34.8964V13.1033Z" fill="url(#paint0_linear_76_195)"/>
</g>
</g>
<defs>
<filter id="filter0_d_76_195" x="-3.15455" y="8.47241" width="54.2798" height="42.5288" filterUnits="userSpaceOnUse" color-interpolation-filters="sRGB">
<feFlood flood-opacity="0" result="BackgroundImageFix"/>
<feColorMatrix in="SourceAlpha" type="matrix" values="0 0 0 0 0 0 0 0 0 0 0 0 0 0 0 0 0 0 127 0" result="hardAlpha"/>
<feOffset/>
<feGaussianBlur stdDeviation="1.56262"/>
<feColorMatrix type="matrix" values="0 0 0 0 0 0 0 0 0 0 0 0 0 0 0 0 0 0 0.25 0"/>
<feBlend mode="overlay" in2="BackgroundImageFix" result="effect1_dropShadow_76_195"/>
<feBlend mode="normal" in="SourceGraphic" in2="effect1_dropShadow_76_195" result="shape"/>
</filter>
<filter id="filter1_d_76_195" x="29.8748" y="-3.00123" width="21.2505" height="54.0025" filterUnits="userSpaceOnUse" color-interpolation-filters="sRGB">
<feFlood flood-opacity="0" result="BackgroundImageFix"/>
<feColorMatrix in="SourceAlpha" type="matrix" values="0 0 0 0 0 0 0 0 0 0 0 0 0 0 0 0 0 0 127 0" result="hardAlpha"/>
<feOffset/>
<feGaussianBlur stdDeviation="1.56262"/>
<feColorMatrix type="matrix" values="0 0 0 0 0 0 0 0 0 0 0 0 0 0 0 0 0 0 0.25 0"/>
<feBlend mode="overlay" in2="BackgroundImageFix" result="effect1_dropShadow_76_195"/>
<feBlend mode="normal" in="SourceGraphic" in2="effect1_dropShadow_76_195" result="shape"/>
</filter>
<linearGradient id="paint0_linear_76_195" x1="23.9707" y1="0.123803" x2="23.9707" y2="47.8763" gradientUnits="userSpaceOnUse">
<stop stop-color="white"/>
<stop offset="1" stop-color="white" stop-opacity="0"/>
</linearGradient>
<clipPath id="clip0_76_195">
<rect width="48" height="48" fill="white"/>
</clipPath>
</defs>
</svg>
