<svg width="48" height="48" viewBox="0 0 48 48" fill="none" xmlns="http://www.w3.org/2000/svg">
<path d="M12.58 35.4201C12.7659 35.6076 12.9871 35.7564 13.2308 35.8579C13.4746 35.9594 13.736 36.0117 14 36.0117C14.264 36.0117 14.5254 35.9594 14.7692 35.8579C15.0129 35.7564 15.2341 35.6076 15.42 35.4201L32 18.8201V30.0001C32 30.5306 32.2107 31.0393 32.5858 31.4143C32.9609 31.7894 33.4696 32.0001 34 32.0001C34.5304 32.0001 35.0391 31.7894 35.4142 31.4143C35.7893 31.0393 36 30.5306 36 30.0001V14.0001C36 13.4697 35.7893 12.961 35.4142 12.5859C35.0391 12.2108 34.5304 12.0001 34 12.0001L18 12.0001C17.4696 12.0001 16.9609 12.2108 16.5858 12.5859C16.2107 12.961 16 13.4697 16 14.0001C16 14.5306 16.2107 15.0393 16.5858 15.4143C16.9609 15.7894 17.4696 16.0001 18 16.0001L29.18 16.0001L12.58 32.5801C12.3925 32.766 12.2438 32.9872 12.1422 33.231C12.0407 33.4747 11.9884 33.7361 11.9884 34.0001C11.9884 34.2641 12.0407 34.5256 12.1422 34.7693C12.2438 35.013 12.3925 35.2342 12.58 35.4201Z" fill="#222222"/>
</svg>
