<svg width="48" height="48" viewBox="0 0 48 48" fill="none" xmlns="http://www.w3.org/2000/svg">
<g clip-path="url(#clip0_78_223)">
<path fill-rule="evenodd" clip-rule="evenodd" d="M47.247 11.4019C46.987 9.10193 47.107 4.40193 45.427 3.10193C41.607 0.139927 33.225 0.939927 27.801 0.699927C20.763 0.419927 13.541 0.979927 6.58097 1.17993C6.40063 1.17993 6.22766 1.25157 6.10014 1.37909C5.97262 1.50662 5.90097 1.67958 5.90097 1.85993C5.90097 2.04027 5.97262 2.21323 6.10014 2.34076C6.22766 2.46828 6.40063 2.53993 6.58097 2.53993C13.501 2.43993 20.583 1.97993 27.685 2.37993C32.605 2.65993 41.027 2.09993 44.189 4.63993C44.989 5.27993 45.009 9.97993 45.169 11.6199C45.841 17.4459 45.895 23.3259 45.329 29.1639C45.233 31.1239 44.933 33.0679 44.429 34.9639C39.789 37.5639 5.20097 39.7259 3.08097 36.0039C2.47461 34.0554 2.10528 32.0409 1.98097 30.0039C4.54097 29.4839 8.36097 30.2839 24.345 29.7639C36.147 29.3639 39.387 29.7639 41.227 29.7639C41.347 29.7639 41.847 28.7639 41.227 28.4639H40.967C29.907 27.3239 22.225 27.6239 4.66097 28.6439C3.76361 28.5831 2.86215 28.6437 1.98097 28.8239C1.38512 22.6599 1.45217 16.4497 2.18097 10.2999C2.18097 9.27993 2.36097 8.29993 2.50097 7.21993C2.48628 5.94751 2.62733 4.67808 2.92097 3.43993C3.62097 2.73993 1.94097 1.23993 1.50097 4.11993C1.34097 5.13993 1.34097 6.49993 1.26097 7.03993C1.10097 8.09993 0.980973 9.13993 0.880973 10.1799C0.0660105 15.7888 -0.181908 21.4654 0.140973 27.1239C0.190864 30.4393 0.640785 33.7364 1.48097 36.9439C3.06097 39.8459 13.021 40.0659 16.483 40.1259C15.4919 41.6764 15.0483 43.514 15.223 45.3459C13.683 45.4659 12.243 45.6059 10.923 45.6659C10.7638 45.6659 10.6112 45.7291 10.4987 45.8417C10.3862 45.9542 10.323 46.1068 10.323 46.2659C10.323 46.4251 10.3862 46.5777 10.4987 46.6902C10.6112 46.8027 10.7638 46.8659 10.923 46.8659C22.583 47.2659 18.523 47.8859 35.107 46.6059C35.2873 46.6059 35.4603 46.5343 35.5878 46.4068C35.7153 46.2792 35.787 46.1063 35.787 45.9259C35.787 45.7456 35.7153 45.5726 35.5878 45.4451C35.4603 45.3176 35.2873 45.2459 35.107 45.2459H31.427C31.1603 43.3453 30.6214 41.493 29.827 39.7459C34.3882 39.4578 38.9173 38.7888 43.367 37.7459C46.249 36.9659 46.749 36.1859 47.129 33.9059C48.253 26.4479 48.293 18.8679 47.249 11.3999M29.825 45.1879C24.365 45.0679 21.465 45.0079 16.745 45.1879C17.5733 43.5951 18.0828 41.8559 18.245 40.0679C21.585 40.0679 24.785 39.9479 27.845 39.7679C28.079 41.7019 28.755 43.5579 29.825 45.1879Z" fill="#222222"/>
<path fill-rule="evenodd" clip-rule="evenodd" d="M23.8419 31.8061C22.1419 30.9061 20.0619 32.6461 21.5819 34.1861C21.7665 34.3644 21.9865 34.5022 22.2276 34.5905C22.4686 34.6788 22.7255 34.7156 22.9817 34.6987C23.2379 34.6817 23.4877 34.6113 23.7151 34.492C23.9424 34.3728 24.1423 34.2072 24.3019 34.0061C24.4899 33.6424 24.5468 33.225 24.463 32.8243C24.3792 32.4235 24.1598 32.0639 23.8419 31.8061ZM5.21985 14.7841C5.83985 21.8441 5.67985 22.0641 6.49985 22.9041C6.60695 23.0672 6.75104 23.2027 6.92039 23.2996C7.08974 23.3966 7.27957 23.4522 7.47446 23.4619C7.66935 23.4717 7.86378 23.4353 8.04196 23.3557C8.22013 23.2762 8.37702 23.1557 8.49985 23.0041C9.23131 21.5188 9.68542 19.9125 9.83985 18.2641C11.5599 20.6841 12.4199 22.1441 13.2599 22.5441C13.468 22.6674 13.7043 22.7354 13.9462 22.7418C14.1881 22.7482 14.4276 22.6926 14.642 22.5804C14.8563 22.4682 15.0385 22.3031 15.1711 22.1007C15.3038 21.8983 15.3825 21.6654 15.3999 21.4241C15.4658 20.6588 15.4658 19.8893 15.3999 19.1241C15.5599 11.6641 15.8019 8.98206 14.7999 9.34406C13.9799 9.02206 13.9799 11.0441 13.9799 13.0041C13.9799 12.8441 13.4199 18.5841 13.5599 19.8441C13.5599 19.8441 11.3199 14.8641 11.0799 14.4041C10.9805 14.1821 10.8191 13.9937 10.615 13.8615C10.4109 13.7293 10.173 13.6589 9.92985 13.6589C9.68671 13.6589 9.44876 13.7293 9.24471 13.8615C9.04065 13.9937 8.87921 14.1821 8.77985 14.4041C8.1552 15.9606 7.68624 17.5751 7.37985 19.2241L6.59985 14.5241C6.13985 12.4841 5.97985 10.9841 5.97985 10.8641C5.55985 9.74406 4.61985 9.64406 4.77985 11.3241C4.85985 12.0041 5.17985 14.4041 5.21985 14.7841ZM23.9819 14.4041C23.8825 14.1821 23.7211 13.9937 23.517 13.8615C23.3129 13.7293 23.075 13.6589 22.8319 13.6589C22.5887 13.6589 22.3508 13.7293 22.1467 13.8615C21.9427 13.9937 21.7812 14.1821 21.6819 14.4041C21.0855 15.9669 20.6303 17.58 20.3219 19.2241L19.5419 14.5241C19.0819 12.5241 18.9819 10.9841 18.9219 10.8641C18.5219 9.74406 17.5819 9.64406 17.7419 11.3241C17.7419 11.9841 18.1019 14.4041 18.1619 14.7841C18.7819 21.8441 18.6219 22.0641 19.4419 22.9041C19.549 23.0672 19.693 23.2027 19.8624 23.2996C20.0317 23.3966 20.2216 23.4522 20.4165 23.4619C20.6113 23.4717 20.8058 23.4353 20.984 23.3557C21.1621 23.2762 21.319 23.1557 21.4419 23.0041C22.1574 21.5127 22.6107 19.9093 22.7819 18.2641C24.5019 20.6841 25.3619 22.1441 26.1839 22.5441C26.3925 22.6722 26.6308 22.7441 26.8755 22.7529C27.1202 22.7618 27.363 22.7072 27.5804 22.5945C27.7977 22.4818 27.9823 22.3148 28.1161 22.1097C28.2498 21.9046 28.3283 21.6684 28.3439 21.4241C28.4098 20.6588 28.4098 19.8893 28.3439 19.1241C28.5039 11.6641 28.7239 8.98206 27.7439 9.34406C26.9039 9.02206 27.0639 11.0441 26.9839 13.0041C26.9839 12.8441 26.4239 18.5841 26.5639 19.8441C26.4839 19.8441 24.2439 14.8641 23.9839 14.4041M36.9259 14.4041C36.8265 14.1821 36.6651 13.9937 36.461 13.8615C36.2569 13.7293 36.019 13.6589 35.7759 13.6589C35.5327 13.6589 35.2948 13.7293 35.0907 13.8615C34.8866 13.9937 34.7252 14.1821 34.6259 14.4041C34.0295 15.9669 33.5743 17.58 33.2659 19.2241L32.4859 14.5241C32.0259 12.5241 31.9259 10.9841 31.8659 10.8641C31.4659 9.74406 30.5259 9.64406 30.6859 11.3241C30.6859 11.9841 31.0459 14.4041 31.1059 14.7841C31.7259 21.8441 31.5659 22.0641 32.3659 22.9041C32.4756 23.0637 32.6207 23.1958 32.7899 23.2903C32.959 23.3847 33.1476 23.4388 33.3411 23.4485C33.5346 23.4582 33.7277 23.4231 33.9054 23.346C34.0832 23.269 34.2407 23.1519 34.3659 23.0041C35.0814 21.5127 35.5347 19.9093 35.7059 18.2641C37.4259 20.6841 38.2859 22.1441 39.1059 22.5441C39.3145 22.6722 39.5528 22.7441 39.7975 22.7529C40.0422 22.7618 40.285 22.7072 40.5024 22.5945C40.7197 22.4818 40.9043 22.3148 41.0381 22.1097C41.1718 21.9046 41.2503 21.6684 41.2659 21.4241C41.3318 20.6588 41.3318 19.8893 41.2659 19.1241C41.4259 11.6641 41.6459 8.98206 40.6659 9.34406C39.8259 9.02206 39.9859 11.0441 39.9059 13.0041C39.9059 12.8441 39.3459 18.5841 39.4859 19.8441C39.4259 19.8441 37.1659 14.8641 36.9259 14.4041Z" fill="#222222"/>
</g>
<defs>
<clipPath id="clip0_78_223">
<rect width="48" height="48" fill="white"/>
</clipPath>
</defs>
</svg>
