<svg width="48" height="48" viewBox="0 0 48 48" fill="none" xmlns="http://www.w3.org/2000/svg">
<path d="M30.8896 10.8781C32.7136 14.8996 34.9531 19.8361 36.6331 21.7981C36.9616 21.0346 36.9256 19.7581 37.3006 16.6411C37.6396 13.8256 39.9616 13.5586 40.9576 13.7581C43.1596 14.2171 43.8316 16.4506 43.7581 17.2741C43.6411 18.5866 43.6351 18.5416 43.3951 21.7141C43.0426 26.3551 44.8351 29.8591 45.0001 33.8326C45.0001 41.3206 38.4376 45.0001 33.8446 45.0001C30.1696 45.0001 26.4931 42.6481 25.1146 41.4721L18.2221 35.1796C17.3791 34.5241 15.2941 32.3596 14.3791 31.1146C11.8846 27.7201 15.4921 25.3831 17.5201 25.9696C17.3596 25.8466 16.3981 24.2851 15.9376 23.5201C14.7001 21.0346 15.9376 19.3801 16.8526 18.9256C18.9256 17.8951 20.4496 19.0546 20.9296 19.6876C20.7466 19.3756 20.1706 18.1126 19.2421 15.7966C18.3136 13.4806 19.8091 12.0511 20.6716 11.6251C22.5466 10.7581 24.3286 11.8591 24.7741 12.8446C24.9916 13.3246 26.1691 15.9016 26.6791 17.0386C26.2936 16.0966 25.5946 14.2246 25.3471 13.3591C24.8551 11.3191 26.0386 9.92259 26.7886 9.56259C27.8326 9.06309 30.0076 8.93259 30.8686 10.8286L30.8896 10.8781Z" fill="#FFD7C2"/>
<path d="M26.6726 10.3724C26.8316 9.86239 27.0491 9.55339 27.2141 9.40039C27.0571 9.44639 26.9151 9.50039 26.7881 9.56239C26.0381 9.92239 24.8546 11.3204 25.3481 13.3589C25.5941 14.2244 26.2931 16.0964 26.6801 17.0384L26.4941 16.6274C27.3401 18.5699 28.3946 20.6624 29.1896 22.0124C29.2904 22.1839 29.4553 22.3082 29.6478 22.3582C29.8404 22.4081 30.0449 22.3795 30.2163 22.2786C30.3878 22.1778 30.5122 22.013 30.5621 21.8204C30.6121 21.6279 30.5834 21.4234 30.4826 21.2519C29.1926 19.0604 27.2306 14.8994 26.6681 12.8339C26.4411 12.0294 26.4426 11.1761 26.6726 10.3724ZM15.9371 23.5199C16.2851 24.0989 16.9196 25.1324 17.2781 25.6544C17.7521 26.2244 18.2711 26.7719 18.7961 27.2924C19.3961 27.8849 20.0186 28.4579 20.6081 29.0009L20.6576 29.0459C21.2666 29.6069 21.8351 30.1334 22.3286 30.6329C22.3978 30.703 22.4802 30.7588 22.571 30.7971C22.6618 30.8354 22.7593 30.8554 22.8578 30.8561C22.9564 30.8567 23.0541 30.8379 23.1454 30.8008C23.2366 30.7636 23.3197 30.7089 23.3898 30.6396C23.46 30.5704 23.5158 30.488 23.5541 30.3972C23.5924 30.3064 23.6124 30.209 23.613 30.1104C23.6136 30.0119 23.5949 29.9142 23.5577 29.8229C23.5206 29.7316 23.4658 29.6485 23.3966 29.5784C22.8731 29.0489 22.2776 28.4984 21.6731 27.9434L21.6311 27.9044C21.0371 27.3569 20.4311 26.7989 19.8521 26.2244C18.6551 25.0394 17.6321 23.8484 17.0891 22.6469C16.7036 21.7979 16.6091 20.8034 16.7141 19.9814C16.7509 19.6427 16.84 19.3118 16.9781 19.0004C17.0079 18.9381 17.042 18.878 17.0801 18.8204C17.0051 18.8524 16.9286 18.8874 16.8506 18.9254C15.9371 19.3799 14.6996 21.0344 15.9371 23.5199ZM20.8241 11.5589C20.6636 11.6669 20.4446 11.9279 20.3051 12.4349C20.1476 13.0064 20.1251 13.8104 20.3876 14.7794C20.7686 16.1834 21.7256 18.0674 22.8191 19.9124C23.766 21.5005 24.784 23.045 25.8701 24.5414C25.9312 24.6207 25.9759 24.7114 26.0014 24.8082C26.0269 24.905 26.0328 25.0059 26.0187 25.105C26.0046 25.2041 25.9708 25.2994 25.9193 25.3852C25.8678 25.471 25.7996 25.5457 25.7188 25.6048C25.638 25.6639 25.5462 25.7062 25.4487 25.7292C25.3513 25.7522 25.2503 25.7555 25.1516 25.7389C25.0529 25.7223 24.9585 25.6861 24.874 25.6324C24.7895 25.5787 24.7166 25.5087 24.6596 25.4264C23.5451 23.8913 22.5006 22.3067 21.5291 20.6774C21.2271 20.1714 20.9361 19.6594 20.6561 19.1414C20.1571 18.0382 19.6855 16.9229 19.2416 15.7964C18.3131 13.4819 19.8086 12.0509 20.6711 11.6264C20.7221 11.6014 20.7731 11.5789 20.8241 11.5589ZM37.0136 19.4159C36.9041 20.6069 36.8411 21.2879 36.6461 21.7649L36.6116 22.1744C36.5937 22.3725 36.6552 22.5696 36.7827 22.7224C36.9101 22.8751 37.093 22.971 37.2911 22.9889C37.4892 23.0068 37.6863 22.9453 37.8391 22.8178C37.9918 22.6904 38.0877 22.5075 38.1056 22.3094C38.1276 22.0644 38.1501 21.7809 38.1731 21.4589C38.2616 20.2694 38.3861 18.5729 38.7536 16.4399C38.9066 15.5549 39.3041 14.7869 39.7586 14.2859C40.1111 13.9004 40.4141 13.7519 40.6226 13.7144C39.5171 13.6364 37.6046 14.1059 37.3001 16.6394C37.1905 17.5629 37.095 18.488 37.0136 19.4144" fill="#F1B99B"/>
<path d="M36.0566 11.3356C36.0573 11.4341 36.0774 11.5315 36.1157 11.6222C36.1541 11.713 36.2099 11.7952 36.28 11.8644C36.3502 11.9336 36.4332 11.9882 36.5245 12.0253C36.6157 12.0623 36.7134 12.081 36.8119 12.0804C36.9104 12.0797 37.0078 12.0596 37.0985 12.0213C37.1892 11.9829 37.2715 11.9271 37.3407 11.857C37.4098 11.7868 37.4645 11.7038 37.5016 11.6125C37.5386 11.5213 37.5573 11.4236 37.5566 11.3251C37.5341 7.88261 34.9166 3.09311 29.2916 3.12911C29.0927 3.1305 28.9025 3.21085 28.7629 3.35249C28.6232 3.49413 28.5455 3.68545 28.5469 3.88436C28.5483 4.08327 28.6286 4.27348 28.7703 4.41315C28.9119 4.55282 29.1032 4.6305 29.3021 4.62911C33.8501 4.59911 36.0371 8.45111 36.0566 11.3356Z" fill="#5092FF"/>
<path d="M34.3155 14.9791C34.1168 14.9803 33.9258 14.9027 33.7844 14.7632C33.6429 14.6237 33.5626 14.4338 33.561 14.2351C33.552 12.8701 32.9895 11.0551 31.7955 9.59265C30.6195 8.15265 28.845 7.06965 26.3655 7.08615C26.1666 7.08754 25.9753 7.00986 25.8336 6.87019C25.692 6.73052 25.6116 6.54031 25.6102 6.3414C25.6089 6.14249 25.6865 5.95117 25.8262 5.80953C25.9659 5.66789 26.1561 5.58754 26.355 5.58615C29.337 5.56665 31.527 6.89415 32.9565 8.64315C34.3665 10.3696 35.049 12.5176 35.061 14.2246C35.0616 14.3231 35.0428 14.4208 35.0056 14.512C34.9685 14.6032 34.9137 14.6862 34.8445 14.7563C34.7753 14.8264 34.6929 14.8821 34.6022 14.9203C34.5114 14.9586 34.414 14.9786 34.3155 14.9791ZM7.3125 26.4152C7.3125 26.2162 7.23348 26.0255 7.09283 25.8848C6.95218 25.7442 6.76141 25.6652 6.5625 25.6652C6.36359 25.6652 6.17282 25.7442 6.03217 25.8848C5.89152 26.0255 5.8125 26.2162 5.8125 26.4152C5.8125 28.1207 6.48 30.2732 7.8795 32.0102C9.2985 33.7682 11.4795 35.1092 14.4615 35.1092C14.6604 35.1092 14.8512 35.0301 14.9918 34.8895C15.1325 34.7488 15.2115 34.5581 15.2115 34.3592C15.2115 34.1602 15.1325 33.9695 14.9918 33.8288C14.8512 33.6882 14.6604 33.6092 14.4615 33.6092C11.982 33.6092 10.2135 32.5142 9.0465 31.0682C7.863 29.5982 7.3125 27.7771 7.3125 26.4136" fill="#5092FF"/>
<path d="M4.79883 29.2964C4.79883 29.0975 4.71981 28.9067 4.57916 28.7661C4.43851 28.6254 4.24774 28.5464 4.04883 28.5464C3.84992 28.5464 3.65915 28.6254 3.5185 28.7661C3.37785 28.9067 3.29883 29.0975 3.29883 29.2964C3.29883 32.7389 5.88333 37.5464 11.5083 37.5464C11.7072 37.5464 11.898 37.4674 12.0387 37.3267C12.1793 37.1861 12.2583 36.9953 12.2583 36.7964C12.2583 36.5975 12.1793 36.4067 12.0387 36.2661C11.898 36.1254 11.7072 36.0464 11.5083 36.0464C6.96033 36.0464 4.79883 32.1824 4.79883 29.2964Z" fill="#5092FF"/>
</svg>
