<svg width="48" height="48" viewBox="0 0 48 48" fill="none" xmlns="http://www.w3.org/2000/svg">
<path d="M43.2803 25.9998C42.9916 25.7612 42.6417 25.6084 42.2704 25.5589C41.8991 25.5094 41.5214 25.5652 41.1803 25.7198C39.0654 26.6876 36.766 27.1857 34.4403 27.1798C30.138 27.1746 26.0122 25.4687 22.9625 22.434C19.9129 19.3993 18.1867 15.282 18.1603 10.9798C18.1696 9.63149 18.3374 8.28894 18.6603 6.97981C18.7288 6.63089 18.7031 6.27 18.5858 5.93432C18.4685 5.59864 18.2637 5.30032 17.9928 5.07008C17.7218 4.83984 17.3943 4.68601 17.0441 4.62444C16.6938 4.56288 16.3335 4.5958 16.0003 4.71981C12.8649 6.12963 10.1394 8.31333 8.07979 11.0658C6.02016 13.8182 4.69403 17.0491 4.22597 20.4548C3.75791 23.8605 4.16328 27.3293 5.40401 30.5353C6.64474 33.7414 8.68009 36.5794 11.3189 38.7827C13.9576 40.9861 17.1132 42.4825 20.4892 43.1314C23.8651 43.7803 27.3506 43.5604 30.6182 42.4923C33.8858 41.4242 36.8282 39.5429 39.1691 37.0253C41.5099 34.5077 43.1724 31.4364 44.0003 28.0998C44.1011 27.7178 44.0865 27.3145 43.9584 26.9407C43.8303 26.567 43.5943 26.2396 43.2803 25.9998ZM24.2803 39.3798C20.9238 39.3561 17.6567 38.2955 14.9263 36.3433C12.1958 34.391 10.1356 31.6425 9.02764 28.4741C7.91967 25.3056 7.81814 21.8722 8.73695 18.6438C9.65576 15.4155 11.55 12.55 14.1603 10.4398V10.9798C14.1656 16.3568 16.3039 21.512 20.106 25.3141C23.9081 29.1162 29.0633 31.2545 34.4403 31.2598C35.852 31.2648 37.2602 31.1173 38.6403 30.8198C37.2601 33.4308 35.1932 35.6155 32.6626 37.1381C30.132 38.6607 27.2336 39.4635 24.2803 39.4598V39.3798Z" fill="#222222"/>
</svg>
