<svg width="48" height="48" viewBox="0 0 48 48" fill="none" xmlns="http://www.w3.org/2000/svg">
<path d="M20.0001 28L42.0001 6M20.0001 28L27.0001 42C27.0879 42.1915 27.2288 42.3537 27.406 42.4675C27.5833 42.5813 27.7895 42.6417 28.0001 42.6417C28.2108 42.6417 28.417 42.5813 28.5942 42.4675C28.7715 42.3537 28.9124 42.1915 29.0001 42L42.0001 6M20.0001 28L6.00014 21C5.80866 20.9123 5.64639 20.7714 5.53263 20.5941C5.41887 20.4168 5.3584 20.2106 5.3584 20C5.3584 19.7894 5.41887 19.5832 5.53263 19.4059C5.64639 19.2286 5.80866 19.0877 6.00014 19L42.0001 6" stroke="#222222" stroke-width="4" stroke-linecap="round" stroke-linejoin="round"/>
</svg>
