<svg width="48" height="48" viewBox="0 0 48 48" fill="none" xmlns="http://www.w3.org/2000/svg">
<path d="M8.504 20C8.16802 21.3067 7.99867 22.6507 8 24C8 25.38 8.176 26.72 8.504 28H14.2C13.9327 25.34 13.9327 22.66 14.2 20H8.504ZM10.14 16H14.832C15.364 13.566 16.132 11.386 17.074 9.572C14.1707 10.9714 11.7549 13.2109 10.14 16ZM39.496 20H33.8C34.0673 22.66 34.0673 25.34 33.8 28H39.496C40.1691 25.3758 40.1691 22.6242 39.496 20ZM37.86 16C36.2451 13.2109 33.8293 10.9714 30.926 9.572C31.87 11.386 32.636 13.566 33.168 16H37.86ZM18.224 20C18.0751 21.3281 18.0004 22.6635 18 24C18 25.37 18.076 26.71 18.224 28H29.776C30.0766 25.3418 30.0766 22.6582 29.776 20H18.224ZM18.94 16H29.06C28.6954 14.4968 28.1704 13.0371 27.494 11.646C26.238 9.136 24.894 8 24 8C23.106 8 21.762 9.136 20.506 11.646C19.876 12.91 19.346 14.38 18.94 16ZM10.14 32C11.7549 34.7891 14.1707 37.0286 17.074 38.428C16.13 36.614 15.364 34.434 14.832 32H10.14ZM37.86 32H33.168C32.636 34.434 31.868 36.614 30.926 38.428C33.8293 37.0286 36.2451 34.7891 37.86 32ZM18.94 32C19.346 33.62 19.876 35.09 20.506 36.354C21.762 38.864 23.106 40 24 40C24.894 40 26.238 38.864 27.494 36.354C28.124 35.09 28.654 33.62 29.06 32H18.94ZM24 44C12.954 44 4 35.046 4 24C4 12.954 12.954 4 24 4C35.046 4 44 12.954 44 24C44 35.046 35.046 44 24 44Z" fill="#222222"/>
</svg>
